<?xml version="1.0" encoding="UTF-8"?>
<svg width="385px" height="383px" viewBox="0 0 385 383" version="1.1" xmlns="http://www.w3.org/2000/svg" xmlns:xlink="http://www.w3.org/1999/xlink">
    <title>topArrow</title>
    <g id="Page-1" stroke="none" stroke-width="1" fill="none" fill-rule="evenodd">
        <path d="M211.426557,375.52366 L376.110557,210.83566 C386.376557,200.33166 386.618557,182.73866 376.110557,172.23066 L211.426557,7.54265997 C201.407557,-2.47634003 184.794557,-2.96134003 174.286557,6.32065997 C162.313557,16.58566 161.821557,35.15266 172.817557,46.39466 L291.079557,164.65666 C291.079557,164.65666 27.9225574,164.65666 27.4345574,164.65666 C-7.01844258,164.65666 -7.74844258,219.38666 27.4345574,219.38666 L291.079557,219.38666 L172.817557,337.64866 C162.313557,348.15666 162.313557,365.74966 172.817557,376.25366 C183.571557,386.27366 200.676557,386.27366 211.426557,375.52366 Z" id="topArrow" fill="#FFFAF2" transform="translate(192.610706, 191.679725) rotate(-90.000000) translate(-192.610706, -191.679725) "></path>
    </g>
</svg>