<?xml version="1.0" encoding="utf-8"?>
<!-- Generator: Adobe Illustrator 25.4.1, SVG Export Plug-In . SVG Version: 6.00 Build 0)  -->
<svg version="1.1" id="Capa_1" xmlns="http://www.w3.org/2000/svg" xmlns:xlink="http://www.w3.org/1999/xlink" x="0px" y="0px"
	 viewBox="0 0 512 512" style="enable-background:new 0 0 512 512;" xml:space="preserve">
<style type="text/css">
	.st0{fill:#31D453;}
</style>
<g>
	<g>
		<path class="st0" d="M142.7,293.1l-94-107.6l94-107.6c7.6-8.7,6.7-21.9-2-29.5c-8.7-7.6-21.9-6.7-29.5,2L5.2,171.8
			c-6.9,7.9-6.9,19.6,0,27.5l106,121.4c4.1,4.7,9.9,7.2,15.8,7.2c4.9,0,9.8-1.7,13.8-5.2C149.4,315.1,150.3,301.9,142.7,293.1z"/>
	</g>
</g>
<g>
	<g>
		<path class="st0" d="M359.9,164.6h-339C9.4,164.6,0,174,0,185.5c0,11.6,9.4,20.9,20.9,20.9h339c60.8,0,110.2,49.4,110.2,110.2
			s-49.4,110.2-110.2,110.2H48.8c-11.6,0-20.9,9.4-20.9,20.9c0,11.6,9.4,20.9,20.9,20.9h311.1c83.8,0,152.1-68.2,152.1-152.1
			S443.8,164.6,359.9,164.6z"/>
	</g>
</g>
</svg>
